<mxfile host="app.diagrams.net" modified="2023-02-18T07:38:47.966Z" agent="5.0 (Macintosh; Intel Mac OS X 10_15_7) AppleWebKit/537.36 (KHTML, like Gecko) Chrome/110.0.0.0 Safari/537.36" etag="Eyblrbl2uxSQKDhkWvvJ" version="20.8.20" type="github">
  <diagram name="第 1 页" id="ItZzdow7_2q8d5_36v3r">
    <mxGraphModel dx="954" dy="559" grid="1" gridSize="10" guides="1" tooltips="1" connect="1" arrows="1" fold="1" page="1" pageScale="1" pageWidth="827" pageHeight="1169" math="0" shadow="0">
      <root>
        <mxCell id="0" />
        <mxCell id="1" parent="0" />
        <mxCell id="j9b-yIdTe6OAfRTKgVTG-3" value="&lt;svg id=&quot;SvgjsSvg1001&quot; width=&quot;1226.6640625&quot; height=&quot;646.40625&quot; xmlns=&quot;http://www.w3.org/2000/svg&quot; version=&quot;1.1&quot; xmlns:xlink=&quot;http://www.w3.org/1999/xlink&quot; xmlns:svgjs=&quot;http://svgjs.com/svgjs&quot;&gt;&lt;defs id=&quot;SvgjsDefs1002&quot;&gt;&lt;marker id=&quot;SvgjsMarker1053&quot; markerWidth=&quot;14&quot; markerHeight=&quot;10&quot; refX=&quot;10&quot; refY=&quot;5&quot; viewBox=&quot;0 0 14 10&quot; orient=&quot;auto&quot; markerUnits=&quot;userSpaceOnUse&quot; stroke-dasharray=&quot;0,0&quot;&gt;&lt;path id=&quot;SvgjsPath1054&quot; d=&quot;M0,0 L14,5 L0,10 L0,0&quot; fill=&quot;#000000&quot; stroke=&quot;#000000&quot; stroke-width=&quot;1&quot;&gt;&lt;/path&gt;&lt;/marker&gt;&lt;marker id=&quot;SvgjsMarker1067&quot; markerWidth=&quot;12&quot; markerHeight=&quot;8&quot; refX=&quot;9&quot; refY=&quot;4&quot; viewBox=&quot;0 0 12 8&quot; orient=&quot;auto&quot; markerUnits=&quot;userSpaceOnUse&quot; stroke-dasharray=&quot;0,0&quot;&gt;&lt;path id=&quot;SvgjsPath1068&quot; d=&quot;M0,0 L12,4 L0,8 L0,0&quot; fill=&quot;#000000&quot; stroke=&quot;#000000&quot; stroke-width=&quot;1&quot;&gt;&lt;/path&gt;&lt;/marker&gt;&lt;marker id=&quot;SvgjsMarker1077&quot; markerWidth=&quot;12&quot; markerHeight=&quot;8&quot; refX=&quot;9&quot; refY=&quot;4&quot; viewBox=&quot;0 0 12 8&quot; orient=&quot;auto&quot; markerUnits=&quot;userSpaceOnUse&quot; stroke-dasharray=&quot;0,0&quot;&gt;&lt;path id=&quot;SvgjsPath1078&quot; d=&quot;M0,0 L12,4 L0,8 L0,0&quot; fill=&quot;#000000&quot; stroke=&quot;#000000&quot; stroke-width=&quot;1&quot;&gt;&lt;/path&gt;&lt;/marker&gt;&lt;marker id=&quot;SvgjsMarker1085&quot; markerWidth=&quot;14&quot; markerHeight=&quot;10&quot; refX=&quot;10&quot; refY=&quot;5&quot; viewBox=&quot;0 0 14 10&quot; orient=&quot;auto&quot; markerUnits=&quot;userSpaceOnUse&quot; stroke-dasharray=&quot;0,0&quot;&gt;&lt;path id=&quot;SvgjsPath1086&quot; d=&quot;M0,0 L14,5 L0,10 L0,0&quot; fill=&quot;#000000&quot; stroke=&quot;#000000&quot; stroke-width=&quot;1&quot;&gt;&lt;/path&gt;&lt;/marker&gt;&lt;marker id=&quot;SvgjsMarker1093&quot; markerWidth=&quot;12&quot; markerHeight=&quot;8&quot; refX=&quot;9&quot; refY=&quot;4&quot; viewBox=&quot;0 0 12 8&quot; orient=&quot;auto&quot; markerUnits=&quot;userSpaceOnUse&quot; stroke-dasharray=&quot;0,0&quot;&gt;&lt;path id=&quot;SvgjsPath1094&quot; d=&quot;M0,0 L12,4 L0,8 L0,0&quot; fill=&quot;#000000&quot; stroke=&quot;#000000&quot; stroke-width=&quot;1&quot;&gt;&lt;/path&gt;&lt;/marker&gt;&lt;marker id=&quot;SvgjsMarker1137&quot; markerWidth=&quot;12&quot; markerHeight=&quot;8&quot; refX=&quot;9&quot; refY=&quot;4&quot; viewBox=&quot;0 0 12 8&quot; orient=&quot;auto&quot; markerUnits=&quot;userSpaceOnUse&quot; stroke-dasharray=&quot;0,0&quot;&gt;&lt;path id=&quot;SvgjsPath1138&quot; d=&quot;M0,0 L12,4 L0,8 L0,0&quot; fill=&quot;#000000&quot; stroke=&quot;#000000&quot; stroke-width=&quot;1&quot;&gt;&lt;/path&gt;&lt;/marker&gt;&lt;marker id=&quot;SvgjsMarker1263&quot; markerWidth=&quot;12&quot; markerHeight=&quot;8&quot; refX=&quot;9&quot; refY=&quot;4&quot; viewBox=&quot;0 0 12 8&quot; orient=&quot;auto&quot; markerUnits=&quot;userSpaceOnUse&quot; stroke-dasharray=&quot;0,0&quot;&gt;&lt;path id=&quot;SvgjsPath1264&quot; d=&quot;M0,0 L12,4 L0,8 L0,0&quot; fill=&quot;#000000&quot; stroke=&quot;#000000&quot; stroke-width=&quot;1&quot;&gt;&lt;/path&gt;&lt;/marker&gt;&lt;marker id=&quot;SvgjsMarker1271&quot; markerWidth=&quot;12&quot; markerHeight=&quot;8&quot; refX=&quot;9&quot; refY=&quot;4&quot; viewBox=&quot;0 0 12 8&quot; orient=&quot;auto&quot; markerUnits=&quot;userSpaceOnUse&quot; stroke-dasharray=&quot;0,0&quot;&gt;&lt;path id=&quot;SvgjsPath1272&quot; d=&quot;M0,0 L12,4 L0,8 L0,0&quot; fill=&quot;#000000&quot; stroke=&quot;#000000&quot; stroke-width=&quot;1&quot;&gt;&lt;/path&gt;&lt;/marker&gt;&lt;marker id=&quot;SvgjsMarker1279&quot; markerWidth=&quot;12&quot; markerHeight=&quot;8&quot; refX=&quot;9&quot; refY=&quot;4&quot; viewBox=&quot;0 0 12 8&quot; orient=&quot;auto&quot; markerUnits=&quot;userSpaceOnUse&quot; stroke-dasharray=&quot;0,0&quot;&gt;&lt;path id=&quot;SvgjsPath1280&quot; d=&quot;M0,0 L12,4 L0,8 L0,0&quot; fill=&quot;#000000&quot; stroke=&quot;#000000&quot; stroke-width=&quot;1&quot;&gt;&lt;/path&gt;&lt;/marker&gt;&lt;marker id=&quot;SvgjsMarker1287&quot; markerWidth=&quot;12&quot; markerHeight=&quot;8&quot; refX=&quot;9&quot; refY=&quot;4&quot; viewBox=&quot;0 0 12 8&quot; orient=&quot;auto&quot; markerUnits=&quot;userSpaceOnUse&quot; stroke-dasharray=&quot;0,0&quot;&gt;&lt;path id=&quot;SvgjsPath1288&quot; d=&quot;M0,0 L12,4 L0,8 L0,0&quot; fill=&quot;#000000&quot; stroke=&quot;#000000&quot; stroke-width=&quot;1&quot;&gt;&lt;/path&gt;&lt;/marker&gt;&lt;marker id=&quot;SvgjsMarker1303&quot; markerWidth=&quot;12&quot; markerHeight=&quot;8&quot; refX=&quot;9&quot; refY=&quot;4&quot; viewBox=&quot;0 0 12 8&quot; orient=&quot;auto&quot; markerUnits=&quot;userSpaceOnUse&quot; stroke-dasharray=&quot;0,0&quot;&gt;&lt;path id=&quot;SvgjsPath1304&quot; d=&quot;M0,0 L12,4 L0,8 L0,0&quot; fill=&quot;#000000&quot; stroke=&quot;#000000&quot; stroke-width=&quot;1&quot;&gt;&lt;/path&gt;&lt;/marker&gt;&lt;marker id=&quot;SvgjsMarker1307&quot; markerWidth=&quot;14&quot; markerHeight=&quot;10&quot; refX=&quot;10&quot; refY=&quot;5&quot; viewBox=&quot;0 0 14 10&quot; orient=&quot;auto&quot; markerUnits=&quot;userSpaceOnUse&quot; stroke-dasharray=&quot;0,0&quot;&gt;&lt;path id=&quot;SvgjsPath1308&quot; d=&quot;M0,0 L14,5 L0,10 L0,0&quot; fill=&quot;#000000&quot; stroke=&quot;#000000&quot; stroke-width=&quot;1&quot;&gt;&lt;/path&gt;&lt;/marker&gt;&lt;marker id=&quot;SvgjsMarker1335&quot; markerWidth=&quot;12&quot; markerHeight=&quot;8&quot; refX=&quot;3&quot; refY=&quot;4&quot; viewBox=&quot;0 0 12 8&quot; orient=&quot;auto&quot; markerUnits=&quot;userSpaceOnUse&quot; stroke-dasharray=&quot;0,0&quot;&gt;&lt;path id=&quot;SvgjsPath1336&quot; d=&quot;M12,0 L0,4 L12,8 L12,0&quot; fill=&quot;#323232&quot; stroke=&quot;#323232&quot; stroke-width=&quot;1&quot;&gt;&lt;/path&gt;&lt;/marker&gt;&lt;/defs&gt;&lt;rect id=&quot;svgbackgroundid&quot; width=&quot;1226.6640625&quot; height=&quot;646.40625&quot; fill=&quot;#ffffff&quot;&gt;&lt;/rect&gt;&lt;g id=&quot;SvgjsG1009&quot; transform=&quot;translate(227.32331730769243,31.61317700157001)&quot;&gt;&lt;path id=&quot;SvgjsPath1010&quot; d=&quot;M 0 4Q 0 0 4 0L 280 0Q 284 0 284 4L 284 392.2857142857143Q 284 396.2857142857143 280 396.2857142857143L 4 396.2857142857143Q 0 396.2857142857143 0 392.2857142857143Z&quot; stroke-dasharray=&quot;10,6&quot; stroke=&quot;rgba(0,0,0,1)&quot; stroke-width=&quot;1&quot; fill-opacity=&quot;1&quot; fill=&quot;#ffffff&quot;&gt;&lt;/path&gt;&lt;g id=&quot;SvgjsG1011&quot;&gt;&lt;text id=&quot;SvgjsText1012&quot; font-family=&quot;微软雅黑&quot; text-anchor=&quot;end&quot; font-size=&quot;16px&quot; width=&quot;264px&quot; fill=&quot;#323232&quot; font-weight=&quot;700&quot; align=&quot;top&quot; lineHeight=&quot;125%&quot; anchor=&quot;end&quot; family=&quot;微软雅黑&quot; size=&quot;16px&quot; weight=&quot;700&quot; font-style=&quot;&quot; opacity=&quot;1&quot; y=&quot;-4&quot; transform=&quot;rotate(0)&quot;&gt;&lt;tspan id=&quot;SvgjsTspan1013&quot; dy=&quot;20&quot; x=&quot;274&quot;&gt;&lt;tspan id=&quot;SvgjsTspan1014&quot; style=&quot;text-decoration:;&quot;&gt;Browser process&lt;/tspan&gt;&lt;/tspan&gt;&lt;/text&gt;&lt;/g&gt;&lt;/g&gt;&lt;g id=&quot;SvgjsG1015&quot; transform=&quot;translate(686.3717866954473,31.71011577708012)&quot;&gt;&lt;path id=&quot;SvgjsPath1016&quot; d=&quot;M 0 4Q 0 0 4 0L 371.571428571429 0Q 375.571428571429 0 375.571428571429 4L 375.571428571429 295.3469387755101Q 375.571428571429 299.3469387755101 371.571428571429 299.3469387755101L 4 299.3469387755101Q 0 299.3469387755101 0 295.3469387755101Z&quot; stroke-dasharray=&quot;10,6&quot; stroke=&quot;rgba(0,0,0,1)&quot; stroke-width=&quot;1&quot; fill-opacity=&quot;1&quot; fill=&quot;#ffffff&quot;&gt;&lt;/path&gt;&lt;g id=&quot;SvgjsG1017&quot;&gt;&lt;text id=&quot;SvgjsText1018&quot; font-family=&quot;微软雅黑&quot; text-anchor=&quot;start&quot; font-size=&quot;14px&quot; width=&quot;356px&quot; fill=&quot;#323232&quot; font-weight=&quot;700&quot; align=&quot;top&quot; lineHeight=&quot;125%&quot; anchor=&quot;start&quot; family=&quot;微软雅黑&quot; size=&quot;14px&quot; weight=&quot;700&quot; font-style=&quot;&quot; opacity=&quot;1&quot; y=&quot;-2.75&quot; transform=&quot;rotate(0)&quot;&gt;&lt;tspan id=&quot;SvgjsTspan1019&quot; dy=&quot;17&quot; x=&quot;10&quot;&gt;&lt;tspan id=&quot;SvgjsTspan1020&quot; style=&quot;text-decoration:;&quot;&gt;Renderer proces&lt;/tspan&gt;&lt;/tspan&gt;&lt;/text&gt;&lt;/g&gt;&lt;/g&gt;&lt;g id=&quot;SvgjsG1021&quot; transform=&quot;translate(250.82331730769243,38.09787087912091)&quot;&gt;&lt;path id=&quot;SvgjsPath1022&quot; d=&quot;M 0 4Q 0 0 4 0L 69 0Q 73 0 73 4L 73 80Q 73 84 69 84L 4 84Q 0 84 0 80Z&quot; stroke=&quot;rgba(255,183,77,1)&quot; stroke-width=&quot;1&quot; fill-opacity=&quot;1&quot; fill=&quot;#ffe0b2&quot;&gt;&lt;/path&gt;&lt;g id=&quot;SvgjsG1023&quot;&gt;&lt;text id=&quot;SvgjsText1024&quot; font-family=&quot;微软雅黑&quot; text-anchor=&quot;middle&quot; font-size=&quot;14px&quot; width=&quot;53px&quot; fill=&quot;#323232&quot; font-weight=&quot;700&quot; align=&quot;middle&quot; lineHeight=&quot;125%&quot; anchor=&quot;middle&quot; family=&quot;微软雅黑&quot; size=&quot;14px&quot; weight=&quot;700&quot; font-style=&quot;&quot; opacity=&quot;1&quot; y=&quot;21.75&quot; transform=&quot;rotate(0)&quot;&gt;&lt;tspan id=&quot;SvgjsTspan1025&quot; dy=&quot;17&quot; x=&quot;36.5&quot;&gt;&lt;tspan id=&quot;SvgjsTspan1026&quot; style=&quot;text-decoration:;&quot;&gt;UI &lt;/tspan&gt;&lt;/tspan&gt;&lt;tspan id=&quot;SvgjsTspan1027&quot; dy=&quot;17&quot; x=&quot;36.5&quot;&gt;&lt;tspan id=&quot;SvgjsTspan1028&quot; style=&quot;text-decoration:;&quot;&gt;thread&lt;/tspan&gt;&lt;/tspan&gt;&lt;/text&gt;&lt;/g&gt;&lt;/g&gt;&lt;g id=&quot;SvgjsG1029&quot; transform=&quot;translate(239.971276491366,194.41929945054977)&quot;&gt;&lt;path id=&quot;SvgjsPath1030&quot; d=&quot;M 0 4Q 0 0 4 0L 143.23979591836735 0Q 147.23979591836735 0 147.23979591836735 4L 147.23979591836735 136.51020408163276Q 147.23979591836735 140.51020408163276 143.23979591836735 140.51020408163276L 4 140.51020408163276Q 0 140.51020408163276 0 136.51020408163276Z&quot; stroke=&quot;rgba(77,208,225,1)&quot; stroke-width=&quot;1&quot; fill-opacity=&quot;1&quot; fill=&quot;#b2ebf2&quot;&gt;&lt;/path&gt;&lt;g id=&quot;SvgjsG1031&quot;&gt;&lt;text id=&quot;SvgjsText1032&quot; font-family=&quot;微软雅黑&quot; text-anchor=&quot;end&quot; font-size=&quot;14px&quot; width=&quot;128px&quot; fill=&quot;#323232&quot; font-weight=&quot;700&quot; align=&quot;bottom&quot; lineHeight=&quot;125%&quot; anchor=&quot;end&quot; family=&quot;微软雅黑&quot; size=&quot;14px&quot; weight=&quot;700&quot; font-style=&quot;&quot; opacity=&quot;1&quot; y=&quot;102.76020408163276&quot; transform=&quot;rotate(0)&quot;&gt;&lt;tspan id=&quot;SvgjsTspan1033&quot; dy=&quot;17&quot; x=&quot;138&quot;&gt;&lt;tspan id=&quot;SvgjsTspan1034&quot; style=&quot;text-decoration:;&quot;&gt;network&lt;/tspan&gt;&lt;/tspan&gt;&lt;tspan id=&quot;SvgjsTspan1035&quot; dy=&quot;17&quot; x=&quot;138&quot;&gt;&lt;tspan id=&quot;SvgjsTspan1036&quot; style=&quot;text-decoration:;font-size: inherit;&quot;&gt;thread&lt;/tspan&gt;&lt;/tspan&gt;&lt;/text&gt;&lt;/g&gt;&lt;/g&gt;&lt;g id=&quot;SvgjsG1037&quot; transform=&quot;translate(246.6983173076925,390.42950353218225)&quot;&gt;&lt;path id=&quot;SvgjsPath1038&quot; d=&quot;M 0 0L 111.75 0L 111.75 24L 0 24Z&quot; stroke=&quot;none&quot; fill=&quot;none&quot;&gt;&lt;/path&gt;&lt;g id=&quot;SvgjsG1039&quot;&gt;&lt;text id=&quot;SvgjsText1040&quot; font-family=&quot;微软雅黑&quot; text-anchor=&quot;middle&quot; font-size=&quot;13px&quot; width=&quot;112px&quot; fill=&quot;#323232&quot; font-weight=&quot;400&quot; align=&quot;middle&quot; lineHeight=&quot;125%&quot; anchor=&quot;middle&quot; family=&quot;微软雅黑&quot; size=&quot;13px&quot; weight=&quot;400&quot; font-style=&quot;&quot; opacity=&quot;1&quot; y=&quot;1.375&quot; transform=&quot;rotate(0)&quot;&gt;&lt;tspan id=&quot;SvgjsTspan1041&quot; dy=&quot;16&quot; x=&quot;56&quot;&gt;&lt;tspan id=&quot;SvgjsTspan1042&quot; style=&quot;text-decoration:;&quot;&gt;下载管理器&lt;/tspan&gt;&lt;/tspan&gt;&lt;/text&gt;&lt;/g&gt;&lt;/g&gt;&lt;g id=&quot;SvgjsG1043&quot; transform=&quot;translate(250.82331730769243,206.94991169544812)&quot;&gt;&lt;path id=&quot;SvgjsPath1044&quot; d=&quot;M 0 45L 51.75 0L 103.5 45L 51.75 90Z&quot; stroke=&quot;rgba(100,181,246,1)&quot; stroke-width=&quot;1&quot; fill-opacity=&quot;1&quot; fill=&quot;#bbdefb&quot;&gt;&lt;/path&gt;&lt;g id=&quot;SvgjsG1045&quot;&gt;&lt;text id=&quot;SvgjsText1046&quot; font-family=&quot;微软雅黑&quot; text-anchor=&quot;middle&quot; font-size=&quot;13px&quot; width=&quot;84px&quot; fill=&quot;#323232&quot; font-weight=&quot;400&quot; align=&quot;middle&quot; lineHeight=&quot;125%&quot; anchor=&quot;middle&quot; family=&quot;微软雅黑&quot; size=&quot;13px&quot; weight=&quot;400&quot; font-style=&quot;&quot; opacity=&quot;1&quot; y=&quot;26.325000000000003&quot; transform=&quot;rotate(0)&quot;&gt;&lt;tspan id=&quot;SvgjsTspan1047&quot; dy=&quot;16&quot; x=&quot;52&quot;&gt;&lt;tspan id=&quot;SvgjsTspan1048&quot; style=&quot;text-decoration:;&quot;&gt;响应内容是&lt;/tspan&gt;&lt;/tspan&gt;&lt;tspan id=&quot;SvgjsTspan1049&quot; dy=&quot;16&quot; x=&quot;52&quot;&gt;&lt;tspan id=&quot;SvgjsTspan1050&quot; style=&quot;text-decoration:;&quot;&gt;HTML&lt;/tspan&gt;&lt;/tspan&gt;&lt;/text&gt;&lt;/g&gt;&lt;/g&gt;&lt;g id=&quot;SvgjsG1051&quot;&gt;&lt;path id=&quot;SvgjsPath1052&quot; d=&quot;M302.5733173076924 297.449911695448L302.5733173076924 343.68970761381513L302.5733173076923 343.68970761381513L302.5733173076923 386.82950353218223&quot; stroke=&quot;#000000&quot; stroke-width=&quot;2&quot; fill=&quot;none&quot; marker-end=&quot;url(#SvgjsMarker1053)&quot;&gt;&lt;/path&gt;&lt;rect id=&quot;SvgjsRect1055&quot; width=&quot;9&quot; height=&quot;16&quot; x=&quot;298.0733173076924&quot; y=&quot;334.1397076138152&quot; fill=&quot;#ffffff&quot;&gt;&lt;/rect&gt;&lt;text id=&quot;SvgjsText1056&quot; font-family=&quot;微软雅黑&quot; text-anchor=&quot;middle&quot; font-size=&quot;13px&quot; width=&quot;9px&quot; fill=&quot;#323232&quot; font-weight=&quot;400&quot; align=&quot;top&quot; lineHeight=&quot;16px&quot; anchor=&quot;middle&quot; family=&quot;微软雅黑&quot; size=&quot;13px&quot; weight=&quot;400&quot; font-style=&quot;&quot; opacity=&quot;1&quot; y=&quot;331.5147076138152&quot; transform=&quot;rotate(0)&quot;&gt;&lt;tspan id=&quot;SvgjsTspan1057&quot; dy=&quot;16&quot; x=&quot;302.5733173076924&quot;&gt;&lt;tspan id=&quot;SvgjsTspan1058&quot; style=&quot;text-decoration:;&quot;&gt;N&lt;/tspan&gt;&lt;/tspan&gt;&lt;/text&gt;&lt;/g&gt;&lt;g id=&quot;SvgjsG1059&quot; transform=&quot;translate(25.0044397566718,237.674401491366)&quot;&gt;&lt;path id=&quot;SvgjsPath1060&quot; d=&quot;M 0 4Q 0 0 4 0L 92 0Q 96 0 96 4L 96 50Q 96 54 92 54L 4 54Q 0 54 0 50Z&quot; stroke=&quot;rgba(0,0,0,1)&quot; stroke-width=&quot;1&quot; fill-opacity=&quot;1&quot; fill=&quot;#ffffff&quot;&gt;&lt;/path&gt;&lt;g id=&quot;SvgjsG1061&quot;&gt;&lt;text id=&quot;SvgjsText1062&quot; font-family=&quot;微软雅黑&quot; text-anchor=&quot;middle&quot; font-size=&quot;13px&quot; width=&quot;76px&quot; fill=&quot;#323232&quot; font-weight=&quot;400&quot; align=&quot;middle&quot; lineHeight=&quot;125%&quot; anchor=&quot;middle&quot; family=&quot;微软雅黑&quot; size=&quot;13px&quot; weight=&quot;400&quot; font-style=&quot;&quot; opacity=&quot;1&quot; y=&quot;16.375&quot; transform=&quot;rotate(0)&quot;&gt;&lt;tspan id=&quot;SvgjsTspan1063&quot; dy=&quot;16&quot; x=&quot;48&quot;&gt;&lt;tspan id=&quot;SvgjsTspan1064&quot; style=&quot;text-decoration:;&quot;&gt;服务器&lt;/tspan&gt;&lt;/tspan&gt;&lt;/text&gt;&lt;/g&gt;&lt;/g&gt;&lt;g id=&quot;SvgjsG1065&quot;&gt;&lt;path id=&quot;SvgjsPath1066&quot; d=&quot;M120.60646377794018 253.01724212386426L249.02337776990203 251.96466501029101&quot; stroke=&quot;#000000&quot; stroke-width=&quot;1&quot; fill=&quot;none&quot; marker-end=&quot;url(#SvgjsMarker1067)&quot;&gt;&lt;/path&gt;&lt;rect id=&quot;SvgjsRect1069&quot; width=&quot;52&quot; height=&quot;16&quot; x=&quot;158.8149207739211&quot; y=&quot;244.49095356707764&quot; fill=&quot;#ffffff&quot;&gt;&lt;/rect&gt;&lt;text id=&quot;SvgjsText1070&quot; font-family=&quot;微软雅黑&quot; text-anchor=&quot;middle&quot; font-size=&quot;13px&quot; width=&quot;52px&quot; fill=&quot;#323232&quot; font-weight=&quot;400&quot; align=&quot;top&quot; lineHeight=&quot;16px&quot; anchor=&quot;middle&quot; family=&quot;微软雅黑&quot; size=&quot;13px&quot; weight=&quot;400&quot; font-style=&quot;&quot; opacity=&quot;1&quot; y=&quot;241.86595356707764&quot; transform=&quot;rotate(0)&quot;&gt;&lt;tspan id=&quot;SvgjsTspan1071&quot; dy=&quot;16&quot; x=&quot;184.8149207739211&quot;&gt;&lt;tspan id=&quot;SvgjsTspan1072&quot; style=&quot;text-decoration:;&quot;&gt;响应内容&lt;/tspan&gt;&lt;/tspan&gt;&lt;/text&gt;&lt;/g&gt;&lt;g id=&quot;SvgjsG1073&quot;&gt;&lt;path id=&quot;SvgjsPath1074&quot; d=&quot;M307.11146822407323 122.5064893434481C 306.82331730769243 136.4200941947468 329.92617463547566 129.90174638266222 335.9790077573874 142.88208890129152&quot; stroke=&quot;#000000&quot; stroke-width=&quot;1&quot; fill=&quot;none&quot;&gt;&lt;/path&gt;&lt;/g&gt;&lt;g id=&quot;SvgjsG1075&quot;&gt;&lt;path id=&quot;SvgjsPath1076&quot; d=&quot;M239.7019556904734 281.059162250054L121.92977833978361 281.0591622500539&quot; stroke=&quot;#000000&quot; stroke-width=&quot;1&quot; fill=&quot;none&quot; marker-end=&quot;url(#SvgjsMarker1077)&quot;&gt;&lt;/path&gt;&lt;rect id=&quot;SvgjsRect1079&quot; width=&quot;57&quot; height=&quot;16&quot; x=&quot;152.3158670151285&quot; y=&quot;273.05916225005393&quot; fill=&quot;#ffffff&quot;&gt;&lt;/rect&gt;&lt;text id=&quot;SvgjsText1080&quot; font-family=&quot;微软雅黑&quot; text-anchor=&quot;middle&quot; font-size=&quot;13px&quot; width=&quot;57px&quot; fill=&quot;#323232&quot; font-weight=&quot;400&quot; align=&quot;top&quot; lineHeight=&quot;16px&quot; anchor=&quot;middle&quot; family=&quot;微软雅黑&quot; size=&quot;13px&quot; weight=&quot;400&quot; font-style=&quot;&quot; opacity=&quot;1&quot; y=&quot;270.43416225005393&quot; transform=&quot;rotate(0)&quot;&gt;&lt;tspan id=&quot;SvgjsTspan1081&quot; dy=&quot;16&quot; x=&quot;180.8158670151285&quot;&gt;&lt;tspan id=&quot;SvgjsTspan1082&quot; style=&quot;text-decoration:;&quot;&gt;DNS 查询&lt;/tspan&gt;&lt;/tspan&gt;&lt;/text&gt;&lt;/g&gt;&lt;g id=&quot;SvgjsG1083&quot;&gt;&lt;path id=&quot;SvgjsPath1084&quot; d=&quot;M511.10883924605 61.32974223297785L683.3340378458039 56.55120325897437&quot; stroke=&quot;#000000&quot; stroke-width=&quot;2&quot; fill=&quot;none&quot; marker-end=&quot;url(#SvgjsMarker1085)&quot;&gt;&lt;/path&gt;&lt;rect id=&quot;SvgjsRect1087&quot; width=&quot;104&quot; height=&quot;16&quot; x=&quot;545.221438545927&quot; y=&quot;50.94047274597611&quot; fill=&quot;#ffffff&quot;&gt;&lt;/rect&gt;&lt;text id=&quot;SvgjsText1088&quot; font-family=&quot;微软雅黑&quot; text-anchor=&quot;middle&quot; font-size=&quot;13px&quot; width=&quot;104px&quot; fill=&quot;#323232&quot; font-weight=&quot;400&quot; align=&quot;top&quot; lineHeight=&quot;16px&quot; anchor=&quot;middle&quot; family=&quot;微软雅黑&quot; size=&quot;13px&quot; weight=&quot;400&quot; font-style=&quot;&quot; opacity=&quot;1&quot; y=&quot;48.31547274597611&quot; transform=&quot;rotate(0)&quot;&gt;&lt;tspan id=&quot;SvgjsTspan1089&quot; dy=&quot;16&quot; x=&quot;597.221438545927&quot;&gt;&lt;tspan id=&quot;SvgjsTspan1090&quot; style=&quot;text-decoration:;&quot;&gt;确认导航，数据流&lt;/tspan&gt;&lt;/tspan&gt;&lt;/text&gt;&lt;/g&gt;&lt;g id=&quot;SvgjsG1091&quot;&gt;&lt;path id=&quot;SvgjsPath1092&quot; d=&quot;M302.69317896425673 206.46449107033456C 318.2254620394043 173.3837789974746 267.9483173076924 158.11359235976485 268.250526169149 122.85191187096206&quot; stroke=&quot;#000000&quot; stroke-width=&quot;1&quot; fill=&quot;none&quot; marker-end=&quot;url(#SvgjsMarker1093)&quot;&gt;&lt;/path&gt;&lt;rect id=&quot;SvgjsRect1095&quot; width=&quot;9&quot; height=&quot;16&quot; x=&quot;286.683130396837&quot; y=&quot;157.47606462662688&quot; fill=&quot;#ffffff&quot;&gt;&lt;/rect&gt;&lt;text id=&quot;SvgjsText1096&quot; font-family=&quot;微软雅黑&quot; text-anchor=&quot;middle&quot; font-size=&quot;13px&quot; width=&quot;9px&quot; fill=&quot;#323232&quot; font-weight=&quot;700&quot; align=&quot;top&quot; lineHeight=&quot;16px&quot; anchor=&quot;middle&quot; family=&quot;微软雅黑&quot; size=&quot;13px&quot; weight=&quot;700&quot; font-style=&quot;&quot; opacity=&quot;1&quot; y=&quot;154.85106462662688&quot; transform=&quot;rotate(0)&quot;&gt;&lt;tspan id=&quot;SvgjsTspan1097&quot; dy=&quot;16&quot; x=&quot;291.183130396837&quot;&gt;&lt;tspan id=&quot;SvgjsTspan1098&quot; style=&quot;text-decoration:;&quot;&gt;Y&lt;/tspan&gt;&lt;/tspan&gt;&lt;/text&gt;&lt;/g&gt;&lt;g id=&quot;SvgjsG1099&quot; transform=&quot;translate(328.4483173076925,141.7101157770802)&quot;&gt;&lt;path id=&quot;SvgjsPath1100&quot; d=&quot;M 0 13C 0 -4.333333333333333 26 -4.333333333333333 26 13C 26 30.333333333333332 0 30.333333333333332 0 13Z&quot; stroke=&quot;none&quot; fill-opacity=&quot;1&quot; fill=&quot;#f57c00&quot;&gt;&lt;/path&gt;&lt;g id=&quot;SvgjsG1101&quot;&gt;&lt;text id=&quot;SvgjsText1102&quot; font-family=&quot;微软雅黑&quot; text-anchor=&quot;middle&quot; font-size=&quot;12px&quot; width=&quot;6px&quot; fill=&quot;#ffffff&quot; font-weight=&quot;400&quot; align=&quot;middle&quot; lineHeight=&quot;125%&quot; anchor=&quot;middle&quot; family=&quot;微软雅黑&quot; size=&quot;12px&quot; weight=&quot;400&quot; font-style=&quot;&quot; opacity=&quot;1&quot; y=&quot;3&quot; transform=&quot;rotate(0)&quot;&gt;&lt;tspan id=&quot;SvgjsTspan1103&quot; dy=&quot;15&quot; x=&quot;13&quot;&gt;&lt;tspan id=&quot;SvgjsTspan1104&quot; style=&quot;text-decoration:;&quot;&gt;1&lt;/tspan&gt;&lt;/tspan&gt;&lt;/text&gt;&lt;/g&gt;&lt;/g&gt;&lt;g id=&quot;SvgjsG1105&quot; transform=&quot;translate(585.8475520015697,25.000932103610936)&quot;&gt;&lt;path id=&quot;SvgjsPath1106&quot; d=&quot;M 0 13C 0 -4.333333333333333 26 -4.333333333333333 26 13C 26 30.333333333333332 0 30.333333333333332 0 13Z&quot; stroke=&quot;none&quot; fill-opacity=&quot;1&quot; fill=&quot;#f57c00&quot;&gt;&lt;/path&gt;&lt;g id=&quot;SvgjsG1107&quot;&gt;&lt;text id=&quot;SvgjsText1108&quot; font-family=&quot;微软雅黑&quot; text-anchor=&quot;middle&quot; font-size=&quot;14px&quot; width=&quot;6px&quot; fill=&quot;#ffffff&quot; font-weight=&quot;400&quot; align=&quot;middle&quot; lineHeight=&quot;125%&quot; anchor=&quot;middle&quot; family=&quot;微软雅黑&quot; size=&quot;14px&quot; weight=&quot;400&quot; font-style=&quot;&quot; opacity=&quot;1&quot; y=&quot;1.25&quot; transform=&quot;rotate(0)&quot;&gt;&lt;tspan id=&quot;SvgjsTspan1109&quot; dy=&quot;17&quot; x=&quot;13&quot;&gt;&lt;tspan id=&quot;SvgjsTspan1110&quot; style=&quot;text-decoration:;&quot;&gt;5&lt;/tspan&gt;&lt;/tspan&gt;&lt;/text&gt;&lt;/g&gt;&lt;/g&gt;&lt;g id=&quot;SvgjsG1111&quot; transform=&quot;translate(246.6983173076925,155.46521781789647)&quot;&gt;&lt;path id=&quot;SvgjsPath1112&quot; d=&quot;M 0 13C 0 -4.333333333333333 26 -4.333333333333333 26 13C 26 30.333333333333332 0 30.333333333333332 0 13Z&quot; stroke=&quot;none&quot; fill-opacity=&quot;1&quot; fill=&quot;#f57c00&quot;&gt;&lt;/path&gt;&lt;g id=&quot;SvgjsG1113&quot;&gt;&lt;text id=&quot;SvgjsText1114&quot; font-family=&quot;微软雅黑&quot; text-anchor=&quot;start&quot; font-size=&quot;12px&quot; width=&quot;6px&quot; fill=&quot;#ffffff&quot; font-weight=&quot;400&quot; align=&quot;middle&quot; lineHeight=&quot;125%&quot; anchor=&quot;start&quot; family=&quot;微软雅黑&quot; size=&quot;12px&quot; weight=&quot;400&quot; font-style=&quot;&quot; opacity=&quot;1&quot; y=&quot;3&quot; transform=&quot;rotate(0)&quot;&gt;&lt;tspan id=&quot;SvgjsTspan1115&quot; dy=&quot;15&quot; x=&quot;10&quot;&gt;&lt;tspan id=&quot;SvgjsTspan1116&quot; style=&quot;text-decoration:;&quot;&gt;4&lt;/tspan&gt;&lt;/tspan&gt;&lt;/text&gt;&lt;/g&gt;&lt;/g&gt;&lt;g id=&quot;SvgjsG1117&quot; transform=&quot;translate(159.16387853218217,207.67440149136615)&quot;&gt;&lt;path id=&quot;SvgjsPath1118&quot; d=&quot;M 0 13C 0 -4.333333333333333 26 -4.333333333333333 26 13C 26 30.333333333333332 0 30.333333333333332 0 13Z&quot; stroke=&quot;none&quot; fill-opacity=&quot;1&quot; fill=&quot;#f57c00&quot;&gt;&lt;/path&gt;&lt;g id=&quot;SvgjsG1119&quot;&gt;&lt;text id=&quot;SvgjsText1120&quot; font-family=&quot;微软雅黑&quot; text-anchor=&quot;middle&quot; font-size=&quot;14px&quot; width=&quot;6px&quot; fill=&quot;#ffffff&quot; font-weight=&quot;400&quot; align=&quot;middle&quot; lineHeight=&quot;125%&quot; anchor=&quot;middle&quot; family=&quot;微软雅黑&quot; size=&quot;14px&quot; weight=&quot;400&quot; font-style=&quot;&quot; opacity=&quot;1&quot; y=&quot;1.25&quot; transform=&quot;rotate(0)&quot;&gt;&lt;tspan id=&quot;SvgjsTspan1121&quot; dy=&quot;17&quot; x=&quot;13&quot;&gt;&lt;tspan id=&quot;SvgjsTspan1122&quot; style=&quot;text-decoration:;&quot;&gt;3&lt;/tspan&gt;&lt;/tspan&gt;&lt;/text&gt;&lt;/g&gt;&lt;/g&gt;&lt;g id=&quot;SvgjsG1123&quot; transform=&quot;translate(159.16387853218217,291.67440149136604)&quot;&gt;&lt;path id=&quot;SvgjsPath1124&quot; d=&quot;M 0 13C 0 -4.333333333333333 26 -4.333333333333333 26 13C 26 30.333333333333332 0 30.333333333333332 0 13Z&quot; stroke=&quot;none&quot; fill-opacity=&quot;1&quot; fill=&quot;#f57c00&quot;&gt;&lt;/path&gt;&lt;g id=&quot;SvgjsG1125&quot;&gt;&lt;text id=&quot;SvgjsText1126&quot; font-family=&quot;微软雅黑&quot; text-anchor=&quot;middle&quot; font-size=&quot;14px&quot; width=&quot;6px&quot; fill=&quot;#ffffff&quot; font-weight=&quot;400&quot; align=&quot;middle&quot; lineHeight=&quot;125%&quot; anchor=&quot;middle&quot; family=&quot;微软雅黑&quot; size=&quot;14px&quot; weight=&quot;400&quot; font-style=&quot;&quot; opacity=&quot;1&quot; y=&quot;1.25&quot; transform=&quot;rotate(0)&quot;&gt;&lt;tspan id=&quot;SvgjsTspan1127&quot; dy=&quot;17&quot; x=&quot;13&quot;&gt;&lt;tspan id=&quot;SvgjsTspan1128&quot; style=&quot;text-decoration:;&quot;&gt;2&lt;/tspan&gt;&lt;/tspan&gt;&lt;/text&gt;&lt;/g&gt;&lt;/g&gt;&lt;g id=&quot;SvgjsG1129&quot; transform=&quot;translate(711.1166846546314,57.832564756671914)&quot;&gt;&lt;path id=&quot;SvgjsPath1130&quot; d=&quot;M 0 0L 70 0L 70 33L 0 33Z&quot; stroke=&quot;none&quot; fill=&quot;none&quot;&gt;&lt;/path&gt;&lt;g id=&quot;SvgjsG1131&quot;&gt;&lt;text id=&quot;SvgjsText1132&quot; font-family=&quot;微软雅黑&quot; text-anchor=&quot;middle&quot; font-size=&quot;13px&quot; width=&quot;70px&quot; fill=&quot;#323232&quot; font-weight=&quot;400&quot; align=&quot;middle&quot; lineHeight=&quot;125%&quot; anchor=&quot;middle&quot; family=&quot;微软雅黑&quot; size=&quot;13px&quot; weight=&quot;400&quot; font-style=&quot;&quot; opacity=&quot;1&quot; y=&quot;5.875&quot; transform=&quot;rotate(0)&quot;&gt;&lt;tspan id=&quot;SvgjsTspan1133&quot; dy=&quot;16&quot; x=&quot;35&quot;&gt;&lt;tspan id=&quot;SvgjsTspan1134&quot; style=&quot;text-decoration:;fill: rgb(50, 50, 50);&quot;&gt;加载资源&lt;/tspan&gt;&lt;/tspan&gt;&lt;/text&gt;&lt;/g&gt;&lt;/g&gt;&lt;g id=&quot;SvgjsG1135&quot;&gt;&lt;path id=&quot;SvgjsPath1136&quot; d=&quot;M710.1175106142266 74.37320017202914C 560.8396815142818 74.33256475667191 537.4880755500832 264.67440149136615 389.0095856824619 264.6012577437231&quot; stroke=&quot;#000000&quot; stroke-width=&quot;1&quot; fill=&quot;none&quot; marker-end=&quot;url(#SvgjsMarker1137)&quot;&gt;&lt;/path&gt;&lt;rect id=&quot;SvgjsRect1139&quot; width=&quot;78&quot; height=&quot;16&quot; x=&quot;510.2637959362229&quot; y=&quot;161.4994195824833&quot; fill=&quot;#ffffff&quot;&gt;&lt;/rect&gt;&lt;text id=&quot;SvgjsText1140&quot; font-family=&quot;微软雅黑&quot; text-anchor=&quot;middle&quot; font-size=&quot;13px&quot; width=&quot;78px&quot; fill=&quot;#323232&quot; font-weight=&quot;400&quot; align=&quot;top&quot; lineHeight=&quot;16px&quot; anchor=&quot;middle&quot; family=&quot;微软雅黑&quot; size=&quot;13px&quot; weight=&quot;400&quot; font-style=&quot;&quot; opacity=&quot;1&quot; y=&quot;158.8744195824833&quot; transform=&quot;rotate(0)&quot;&gt;&lt;tspan id=&quot;SvgjsTspan1141&quot; dy=&quot;16&quot; x=&quot;549.2637959362229&quot;&gt;&lt;tspan id=&quot;SvgjsTspan1142&quot; style=&quot;text-decoration:;&quot;&gt;请求外部资源&lt;/tspan&gt;&lt;/tspan&gt;&lt;/text&gt;&lt;/g&gt;&lt;g id=&quot;SvgjsG1143&quot; transform=&quot;translate(692.2289295525914,356.90909536891695)&quot;&gt;&lt;path id=&quot;SvgjsPath1144&quot; d=&quot;M 0 4Q 0 0 4 0L 136 0Q 140 0 140 4L 140 50Q 140 54 136 54L 4 54Q 0 54 0 50Z&quot; stroke=&quot;rgba(0,0,0,1)&quot; stroke-width=&quot;2&quot; fill-opacity=&quot;1&quot; fill=&quot;#ffffff&quot;&gt;&lt;/path&gt;&lt;g id=&quot;SvgjsG1145&quot;&gt;&lt;text id=&quot;SvgjsText1146&quot; font-family=&quot;微软雅黑&quot; text-anchor=&quot;middle&quot; font-size=&quot;13px&quot; width=&quot;120px&quot; fill=&quot;#323232&quot; font-weight=&quot;400&quot; align=&quot;middle&quot; lineHeight=&quot;125%&quot; anchor=&quot;middle&quot; family=&quot;微软雅黑&quot; size=&quot;13px&quot; weight=&quot;400&quot; font-style=&quot;&quot; opacity=&quot;1&quot; y=&quot;16.375&quot; transform=&quot;rotate(0)&quot;&gt;&lt;tspan id=&quot;SvgjsTspan1147&quot; dy=&quot;16&quot; x=&quot;70&quot;&gt;&lt;tspan id=&quot;SvgjsTspan1148&quot; style=&quot;text-decoration:;&quot;&gt;main thread&lt;/tspan&gt;&lt;/tspan&gt;&lt;/text&gt;&lt;/g&gt;&lt;/g&gt;&lt;g id=&quot;SvgjsG1149&quot; transform=&quot;translate(227.32331730769232,509.40909536891763)&quot;&gt;&lt;path id=&quot;SvgjsPath1150&quot; d=&quot;M 0 4Q 0 0 4 0L 136.24489795918396 0Q 140.24489795918396 0 140.24489795918396 4L 140.24489795918396 50.00000000000006Q 140.24489795918396 54.00000000000006 136.24489795918396 54.00000000000006L 4 54.00000000000006Q 0 54.00000000000006 0 50.00000000000006Z&quot; stroke=&quot;rgba(0,0,0,1)&quot; stroke-width=&quot;2&quot; fill-opacity=&quot;1&quot; fill=&quot;#ffffff&quot;&gt;&lt;/path&gt;&lt;g id=&quot;SvgjsG1151&quot;&gt;&lt;text id=&quot;SvgjsText1152&quot; font-family=&quot;微软雅黑&quot; text-anchor=&quot;middle&quot; font-size=&quot;13px&quot; width=&quot;121px&quot; fill=&quot;#323232&quot; font-weight=&quot;400&quot; align=&quot;middle&quot; lineHeight=&quot;125%&quot; anchor=&quot;middle&quot; family=&quot;微软雅黑&quot; size=&quot;13px&quot; weight=&quot;400&quot; font-style=&quot;&quot; opacity=&quot;1&quot; y=&quot;16.37500000000003&quot; transform=&quot;rotate(0)&quot;&gt;&lt;tspan id=&quot;SvgjsTspan1153&quot; dy=&quot;16&quot; x=&quot;70.5&quot;&gt;&lt;tspan id=&quot;SvgjsTspan1154&quot; style=&quot;text-decoration:;&quot;&gt;compositor thread&lt;/tspan&gt;&lt;/tspan&gt;&lt;/text&gt;&lt;/g&gt;&lt;/g&gt;&lt;g id=&quot;SvgjsG1155&quot; transform=&quot;translate(793.0860724097333,359.57236067503925)&quot;&gt;&lt;path id=&quot;SvgjsPath1156&quot; d=&quot;M 64.28571428571433 0Q 57.857142857142904 0 57.857142857142904 4.142857142857145L 57.857142857142904 16.571428571428577Q 57.857142857142904 20.714285714285722 42.285714285714334 20.714285714285722Q 57.857142857142904 20.714285714285722 57.857142857142904 24.85714285714287L 57.857142857142904 37.2857142857143Q 57.857142857142904 41.428571428571445 64.28571428571433 41.428571428571445&quot; stroke=&quot;rgba(0,0,0,1)&quot; stroke-width=&quot;2&quot; fill=&quot;none&quot;&gt;&lt;/path&gt;&lt;path id=&quot;SvgjsPath1157&quot; d=&quot;M 0 0L 64.28571428571433 0L 64.28571428571433 41.428571428571445L 0 41.428571428571445Z&quot; stroke=&quot;none&quot; fill=&quot;none&quot;&gt;&lt;/path&gt;&lt;g id=&quot;SvgjsG1158&quot;&gt;&lt;text id=&quot;SvgjsText1159&quot; font-family=&quot;微软雅黑&quot; text-anchor=&quot;end&quot; font-size=&quot;13px&quot; width=&quot;38px&quot; fill=&quot;#323232&quot; font-weight=&quot;400&quot; align=&quot;middle&quot; lineHeight=&quot;125%&quot; anchor=&quot;end&quot; family=&quot;微软雅黑&quot; size=&quot;13px&quot; weight=&quot;400&quot; font-style=&quot;&quot; opacity=&quot;1&quot; y=&quot;10.089285714285722&quot; transform=&quot;rotate(0)&quot;&gt;&lt;/text&gt;&lt;/g&gt;&lt;/g&gt;&lt;g id=&quot;SvgjsG1160&quot; transform=&quot;translate(863.4534193485093,344.5111361852435)&quot;&gt;&lt;path id=&quot;SvgjsPath1161&quot; d=&quot;M 0 0L 133.67346938775518 0L 133.67346938775518 36.32653061224494L 0 36.32653061224494Z&quot; stroke=&quot;none&quot; fill=&quot;none&quot;&gt;&lt;/path&gt;&lt;g id=&quot;SvgjsG1162&quot;&gt;&lt;text id=&quot;SvgjsText1163&quot; font-family=&quot;微软雅黑&quot; text-anchor=&quot;start&quot; font-size=&quot;13px&quot; width=&quot;134px&quot; fill=&quot;#323232&quot; font-weight=&quot;400&quot; align=&quot;middle&quot; lineHeight=&quot;125%&quot; anchor=&quot;start&quot; family=&quot;微软雅黑&quot; size=&quot;13px&quot; weight=&quot;400&quot; font-style=&quot;&quot; opacity=&quot;1&quot; y=&quot;7.538265306122469&quot; transform=&quot;rotate(0)&quot;&gt;&lt;tspan id=&quot;SvgjsTspan1164&quot; dy=&quot;16&quot; x=&quot;0&quot;&gt;&lt;tspan id=&quot;SvgjsTspan1165&quot; style=&quot;text-decoration:;&quot;&gt;创建 Render Tree&lt;/tspan&gt;&lt;/tspan&gt;&lt;/text&gt;&lt;/g&gt;&lt;/g&gt;&lt;g id=&quot;SvgjsG1166&quot; transform=&quot;translate(863.4534193485093,385.5519525117739)&quot;&gt;&lt;path id=&quot;SvgjsPath1167&quot; d=&quot;M 0 0L 133.67346938775518 0L 133.67346938775518 36.32653061224494L 0 36.32653061224494Z&quot; stroke=&quot;none&quot; fill=&quot;none&quot;&gt;&lt;/path&gt;&lt;g id=&quot;SvgjsG1168&quot;&gt;&lt;text id=&quot;SvgjsText1169&quot; font-family=&quot;微软雅黑&quot; text-anchor=&quot;start&quot; font-size=&quot;13px&quot; width=&quot;134px&quot; fill=&quot;#323232&quot; font-weight=&quot;400&quot; align=&quot;middle&quot; lineHeight=&quot;125%&quot; anchor=&quot;start&quot; family=&quot;微软雅黑&quot; size=&quot;13px&quot; weight=&quot;400&quot; font-style=&quot;&quot; opacity=&quot;1&quot; y=&quot;7.538265306122469&quot; transform=&quot;rotate(0)&quot;&gt;&lt;tspan id=&quot;SvgjsTspan1170&quot; dy=&quot;16&quot; x=&quot;0&quot;&gt;&lt;tspan id=&quot;SvgjsTspan1171&quot; style=&quot;text-decoration:;&quot;&gt;创建 Layer&lt;/tspan&gt;&lt;tspan id=&quot;SvgjsTspan1172&quot; style=&quot;text-decoration:;font-size: inherit;&quot;&gt; Tree&lt;/tspan&gt;&lt;/tspan&gt;&lt;/text&gt;&lt;/g&gt;&lt;/g&gt;&lt;g id=&quot;SvgjsG1173&quot; transform=&quot;translate(271.1600520015708,467.16419740973396)&quot;&gt;&lt;path id=&quot;SvgjsPath1174&quot; d=&quot;M 120 0Q 111 0 111 9L 111 61Q 111 70 98 70Q 111 70 111 79L 111 131Q 111 140 120 140&quot; stroke=&quot;rgba(0,0,0,1)&quot; stroke-width=&quot;2&quot; fill=&quot;none&quot;&gt;&lt;/path&gt;&lt;path id=&quot;SvgjsPath1175&quot; d=&quot;M 0 0L 120 0L 120 140L 0 140Z&quot; stroke=&quot;none&quot; fill=&quot;none&quot;&gt;&lt;/path&gt;&lt;g id=&quot;SvgjsG1176&quot;&gt;&lt;text id=&quot;SvgjsText1177&quot; font-family=&quot;微软雅黑&quot; text-anchor=&quot;end&quot; font-size=&quot;13px&quot; width=&quot;93px&quot; fill=&quot;#323232&quot; font-weight=&quot;400&quot; align=&quot;middle&quot; lineHeight=&quot;125%&quot; anchor=&quot;end&quot; family=&quot;微软雅黑&quot; size=&quot;13px&quot; weight=&quot;400&quot; font-style=&quot;&quot; opacity=&quot;1&quot; y=&quot;59.375&quot; transform=&quot;rotate(0)&quot;&gt;&lt;/text&gt;&lt;/g&gt;&lt;/g&gt;&lt;g id=&quot;SvgjsG1178&quot; transform=&quot;translate(409.42535812401894,453.4090953689176)&quot;&gt;&lt;path id=&quot;SvgjsPath1179&quot; d=&quot;M 0 0L 178.06122448979568 0L 178.06122448979568 26.12244897959181L 0 26.12244897959181Z&quot; stroke=&quot;none&quot; fill=&quot;none&quot;&gt;&lt;/path&gt;&lt;g id=&quot;SvgjsG1180&quot;&gt;&lt;text id=&quot;SvgjsText1181&quot; font-family=&quot;微软雅黑&quot; text-anchor=&quot;start&quot; font-size=&quot;13px&quot; width=&quot;179px&quot; fill=&quot;#323232&quot; font-weight=&quot;400&quot; align=&quot;middle&quot; lineHeight=&quot;125%&quot; anchor=&quot;start&quot; family=&quot;微软雅黑&quot; size=&quot;13px&quot; weight=&quot;400&quot; font-style=&quot;&quot; opacity=&quot;1&quot; y=&quot;2.4362244897959044&quot; transform=&quot;rotate(0)&quot;&gt;&lt;tspan id=&quot;SvgjsTspan1182&quot; dy=&quot;16&quot; x=&quot;0&quot;&gt;&lt;tspan id=&quot;SvgjsTspan1183&quot; style=&quot;text-decoration:;&quot;&gt;光栅化 Layer Tree 的每一层&lt;/tspan&gt;&lt;/tspan&gt;&lt;/text&gt;&lt;/g&gt;&lt;/g&gt;&lt;g id=&quot;SvgjsG1184&quot; transform=&quot;translate(409.42535812401894,488.44991169544846)&quot;&gt;&lt;path id=&quot;SvgjsPath1185&quot; d=&quot;M 0 0L 159.1632653061231 0L 159.1632653061231 26.693877551020222L 0 26.693877551020222Z&quot; stroke=&quot;none&quot; fill=&quot;none&quot;&gt;&lt;/path&gt;&lt;g id=&quot;SvgjsG1186&quot;&gt;&lt;text id=&quot;SvgjsText1187&quot; font-family=&quot;微软雅黑&quot; text-anchor=&quot;start&quot; font-size=&quot;13px&quot; width=&quot;160px&quot; fill=&quot;#323232&quot; font-weight=&quot;400&quot; align=&quot;middle&quot; lineHeight=&quot;125%&quot; anchor=&quot;start&quot; family=&quot;微软雅黑&quot; size=&quot;13px&quot; weight=&quot;400&quot; font-style=&quot;&quot; opacity=&quot;1&quot; y=&quot;2.721938775510111&quot; transform=&quot;rotate(0)&quot;&gt;&lt;tspan id=&quot;SvgjsTspan1188&quot; dy=&quot;16&quot; x=&quot;0&quot;&gt;&lt;tspan id=&quot;SvgjsTspan1189&quot; style=&quot;text-decoration:;&quot;&gt;将每一层分割成图块(tiles)&lt;/tspan&gt;&lt;/tspan&gt;&lt;/text&gt;&lt;/g&gt;&lt;/g&gt;&lt;g id=&quot;SvgjsG1190&quot; transform=&quot;translate(409.42535812401894,523.8988912872852)&quot;&gt;&lt;path id=&quot;SvgjsPath1191&quot; d=&quot;M 0 0L 174.38775510204061 0L 174.38775510204061 26.53061224489784L 0 26.53061224489784Z&quot; stroke=&quot;none&quot; fill=&quot;none&quot;&gt;&lt;/path&gt;&lt;g id=&quot;SvgjsG1192&quot;&gt;&lt;text id=&quot;SvgjsText1193&quot; font-family=&quot;微软雅黑&quot; text-anchor=&quot;start&quot; font-size=&quot;13px&quot; width=&quot;175px&quot; fill=&quot;#323232&quot; font-weight=&quot;400&quot; align=&quot;middle&quot; lineHeight=&quot;125%&quot; anchor=&quot;start&quot; family=&quot;微软雅黑&quot; size=&quot;13px&quot; weight=&quot;400&quot; font-style=&quot;&quot; opacity=&quot;1&quot; y=&quot;2.6403061224489193&quot; transform=&quot;rotate(0)&quot;&gt;&lt;tspan id=&quot;SvgjsTspan1194&quot; dy=&quot;16&quot; x=&quot;0&quot;&gt;&lt;tspan id=&quot;SvgjsTspan1195&quot; style=&quot;text-decoration:;&quot;&gt;决定 raster thread 的优先级&lt;/tspan&gt;&lt;/tspan&gt;&lt;/text&gt;&lt;/g&gt;&lt;/g&gt;&lt;g id=&quot;SvgjsG1196&quot; transform=&quot;translate(409.42535812401894,560.2050137362647)&quot;&gt;&lt;path id=&quot;SvgjsPath1197&quot; d=&quot;M 0 0L 116.83673469387759 0L 116.83673469387759 25.42857142857133L 0 25.42857142857133Z&quot; stroke=&quot;none&quot; fill=&quot;none&quot;&gt;&lt;/path&gt;&lt;g id=&quot;SvgjsG1198&quot;&gt;&lt;text id=&quot;SvgjsText1199&quot; font-family=&quot;微软雅黑&quot; text-anchor=&quot;start&quot; font-size=&quot;13px&quot; width=&quot;117px&quot; fill=&quot;#323232&quot; font-weight=&quot;400&quot; align=&quot;middle&quot; lineHeight=&quot;125%&quot; anchor=&quot;start&quot; family=&quot;微软雅黑&quot; size=&quot;13px&quot; weight=&quot;400&quot; font-style=&quot;&quot; opacity=&quot;1&quot; y=&quot;2.0892857142856656&quot; transform=&quot;rotate(0)&quot;&gt;&lt;tspan id=&quot;SvgjsTspan1200&quot; dy=&quot;16&quot; x=&quot;0&quot;&gt;&lt;tspan id=&quot;SvgjsTspan1201&quot; style=&quot;text-decoration:;&quot;&gt;用图块创建合成帧&lt;/tspan&gt;&lt;/tspan&gt;&lt;/text&gt;&lt;/g&gt;&lt;/g&gt;&lt;g id=&quot;SvgjsG1202&quot; transform=&quot;translate(409.4253581240187,595.4090953689175)&quot;&gt;&lt;path id=&quot;SvgjsPath1203&quot; d=&quot;M 0 0L 215.2040816326529 0L 215.2040816326529 26.04081632653049L 0 26.04081632653049Z&quot; stroke=&quot;none&quot; fill=&quot;none&quot;&gt;&lt;/path&gt;&lt;g id=&quot;SvgjsG1204&quot;&gt;&lt;text id=&quot;SvgjsText1205&quot; font-family=&quot;微软雅黑&quot; text-anchor=&quot;start&quot; font-size=&quot;13px&quot; width=&quot;216px&quot; fill=&quot;#323232&quot; font-weight=&quot;400&quot; align=&quot;middle&quot; lineHeight=&quot;125%&quot; anchor=&quot;start&quot; family=&quot;微软雅黑&quot; size=&quot;13px&quot; weight=&quot;400&quot; font-style=&quot;&quot; opacity=&quot;1&quot; y=&quot;2.3954081632652446&quot; transform=&quot;rotate(0)&quot;&gt;&lt;tspan id=&quot;SvgjsTspan1206&quot; dy=&quot;16&quot; x=&quot;0&quot;&gt;&lt;tspan id=&quot;SvgjsTspan1207&quot; style=&quot;text-decoration:;&quot;&gt;将合成帧传递给 Browser Process&lt;/tspan&gt;&lt;/tspan&gt;&lt;/text&gt;&lt;/g&gt;&lt;/g&gt;&lt;g id=&quot;SvgjsG1208&quot; transform=&quot;translate(674.8921948587123,500.2764423076933)&quot;&gt;&lt;path id=&quot;SvgjsPath1209&quot; d=&quot;M 0 4Q 0 0 4 0L 136 0Q 140 0 140 4L 140 50Q 140 54 136 54L 4 54Q 0 54 0 50Z&quot; stroke=&quot;rgba(0,0,0,1)&quot; stroke-width=&quot;2&quot; fill-opacity=&quot;1&quot; fill=&quot;#ffffff&quot;&gt;&lt;/path&gt;&lt;g id=&quot;SvgjsG1210&quot;&gt;&lt;text id=&quot;SvgjsText1211&quot; font-family=&quot;微软雅黑&quot; text-anchor=&quot;middle&quot; font-size=&quot;13px&quot; width=&quot;120px&quot; fill=&quot;#323232&quot; font-weight=&quot;400&quot; align=&quot;middle&quot; lineHeight=&quot;125%&quot; anchor=&quot;middle&quot; family=&quot;微软雅黑&quot; size=&quot;13px&quot; weight=&quot;400&quot; font-style=&quot;&quot; opacity=&quot;1&quot; y=&quot;16.375&quot; transform=&quot;rotate(0)&quot;&gt;&lt;tspan id=&quot;SvgjsTspan1212&quot; dy=&quot;16&quot; x=&quot;70&quot;&gt;&lt;tspan id=&quot;SvgjsTspan1213&quot; style=&quot;text-decoration:;fill: rgb(50, 50, 50);&quot;&gt;raster thread&lt;/tspan&gt;&lt;/tspan&gt;&lt;/text&gt;&lt;/g&gt;&lt;/g&gt;&lt;g id=&quot;SvgjsG1214&quot; transform=&quot;translate(775.8717866954474,505.55195251177497)&quot;&gt;&lt;path id=&quot;SvgjsPath1215&quot; d=&quot;M 64.28571428571433 0Q 57.857142857142904 0 57.857142857142904 4.142857142857145L 57.857142857142904 16.571428571428577Q 57.857142857142904 20.714285714285722 42.285714285714334 20.714285714285722Q 57.857142857142904 20.714285714285722 57.857142857142904 24.85714285714287L 57.857142857142904 37.2857142857143Q 57.857142857142904 41.428571428571445 64.28571428571433 41.428571428571445&quot; stroke=&quot;rgba(0,0,0,1)&quot; stroke-width=&quot;2&quot; fill=&quot;none&quot;&gt;&lt;/path&gt;&lt;path id=&quot;SvgjsPath1216&quot; d=&quot;M 0 0L 64.28571428571433 0L 64.28571428571433 41.428571428571445L 0 41.428571428571445Z&quot; stroke=&quot;none&quot; fill=&quot;none&quot;&gt;&lt;/path&gt;&lt;g id=&quot;SvgjsG1217&quot;&gt;&lt;text id=&quot;SvgjsText1218&quot; font-family=&quot;微软雅黑&quot; text-anchor=&quot;end&quot; font-size=&quot;13px&quot; width=&quot;38px&quot; fill=&quot;#323232&quot; font-weight=&quot;400&quot; align=&quot;middle&quot; lineHeight=&quot;125%&quot; anchor=&quot;end&quot; family=&quot;微软雅黑&quot; size=&quot;13px&quot; weight=&quot;400&quot; font-style=&quot;&quot; opacity=&quot;1&quot; y=&quot;10.089285714285722&quot; transform=&quot;rotate(0)&quot;&gt;&lt;/text&gt;&lt;/g&gt;&lt;/g&gt;&lt;g id=&quot;SvgjsG1219&quot; transform=&quot;translate(848.0146438383044,488.44991169544835)&quot;&gt;&lt;path id=&quot;SvgjsPath1220&quot; d=&quot;M 0 0L 87.65306122449033 0L 87.65306122449033 31.734693877551052L 0 31.734693877551052Z&quot; stroke=&quot;none&quot; fill=&quot;none&quot;&gt;&lt;/path&gt;&lt;g id=&quot;SvgjsG1221&quot;&gt;&lt;text id=&quot;SvgjsText1222&quot; font-family=&quot;微软雅黑&quot; text-anchor=&quot;start&quot; font-size=&quot;13px&quot; width=&quot;88px&quot; fill=&quot;#323232&quot; font-weight=&quot;400&quot; align=&quot;middle&quot; lineHeight=&quot;125%&quot; anchor=&quot;start&quot; family=&quot;微软雅黑&quot; size=&quot;13px&quot; weight=&quot;400&quot; font-style=&quot;&quot; opacity=&quot;1&quot; y=&quot;5.242346938775526&quot; transform=&quot;rotate(0)&quot;&gt;&lt;tspan id=&quot;SvgjsTspan1223&quot; dy=&quot;16&quot; x=&quot;0&quot;&gt;&lt;tspan id=&quot;SvgjsTspan1224&quot; style=&quot;text-decoration:;&quot;&gt;将图块光栅化&lt;/tspan&gt;&lt;/tspan&gt;&lt;/text&gt;&lt;/g&gt;&lt;/g&gt;&lt;g id=&quot;SvgjsG1225&quot; transform=&quot;translate(848.0146438383044,528.4703198587138)&quot;&gt;&lt;path id=&quot;SvgjsPath1226&quot; d=&quot;M 0 0L 225.4081632653067 0L 225.4081632653067 37.63265306122449L 0 37.63265306122449Z&quot; stroke=&quot;none&quot; fill=&quot;none&quot;&gt;&lt;/path&gt;&lt;g id=&quot;SvgjsG1227&quot;&gt;&lt;text id=&quot;SvgjsText1228&quot; font-family=&quot;微软雅黑&quot; text-anchor=&quot;start&quot; font-size=&quot;13px&quot; width=&quot;226px&quot; fill=&quot;#323232&quot; font-weight=&quot;400&quot; align=&quot;middle&quot; lineHeight=&quot;125%&quot; anchor=&quot;start&quot; family=&quot;微软雅黑&quot; size=&quot;13px&quot; weight=&quot;400&quot; font-style=&quot;&quot; opacity=&quot;1&quot; y=&quot;8.191326530612244&quot; transform=&quot;rotate(0)&quot;&gt;&lt;tspan id=&quot;SvgjsTspan1229&quot; dy=&quot;16&quot; x=&quot;0&quot;&gt;&lt;tspan id=&quot;SvgjsTspan1230&quot; style=&quot;text-decoration:;&quot;&gt;将光栅化的图块传递给 GPU Process&lt;/tspan&gt;&lt;/tspan&gt;&lt;/text&gt;&lt;/g&gt;&lt;/g&gt;&lt;g id=&quot;SvgjsG1231&quot; transform=&quot;translate(1083.6702560832036,185.46521781789653)&quot;&gt;&lt;path id=&quot;SvgjsPath1232&quot; d=&quot;M 0 4Q 0 0 4 0L 113.52551020408146 0Q 117.52551020408146 0 117.52551020408146 4L 117.52551020408146 50Q 117.52551020408146 54 113.52551020408146 54L 4 54Q 0 54 0 50Z&quot; stroke=&quot;rgba(0,0,0,1)&quot; stroke-width=&quot;1&quot; fill-opacity=&quot;1&quot; fill=&quot;#ffffff&quot;&gt;&lt;/path&gt;&lt;g id=&quot;SvgjsG1233&quot;&gt;&lt;text id=&quot;SvgjsText1234&quot; font-family=&quot;微软雅黑&quot; text-anchor=&quot;middle&quot; font-size=&quot;13px&quot; width=&quot;98px&quot; fill=&quot;#323232&quot; font-weight=&quot;400&quot; align=&quot;middle&quot; lineHeight=&quot;125%&quot; anchor=&quot;middle&quot; family=&quot;微软雅黑&quot; size=&quot;13px&quot; weight=&quot;400&quot; font-style=&quot;&quot; opacity=&quot;1&quot; y=&quot;16.375&quot; transform=&quot;rotate(0)&quot;&gt;&lt;tspan id=&quot;SvgjsTspan1235&quot; dy=&quot;16&quot; x=&quot;59&quot;&gt;&lt;tspan id=&quot;SvgjsTspan1236&quot; style=&quot;text-decoration:;&quot;&gt;GPU Process&lt;/tspan&gt;&lt;/tspan&gt;&lt;/text&gt;&lt;/g&gt;&lt;/g&gt;&lt;g id=&quot;SvgjsG1237&quot; transform=&quot;translate(549.9559703689172,360.42950353218225)&quot;&gt;&lt;path id=&quot;SvgjsPath1238&quot; d=&quot;M 0 4Q 0 0 4 0L 113.52551020408146 0Q 117.52551020408146 0 117.52551020408146 4L 117.52551020408146 50Q 117.52551020408146 54 113.52551020408146 54L 4 54Q 0 54 0 50Z&quot; stroke=&quot;rgba(0,0,0,1)&quot; stroke-width=&quot;1&quot; fill-opacity=&quot;1&quot; fill=&quot;#ffffff&quot;&gt;&lt;/path&gt;&lt;g id=&quot;SvgjsG1239&quot;&gt;&lt;text id=&quot;SvgjsText1240&quot; font-family=&quot;微软雅黑&quot; text-anchor=&quot;middle&quot; font-size=&quot;13px&quot; width=&quot;98px&quot; fill=&quot;#323232&quot; font-weight=&quot;400&quot; align=&quot;middle&quot; lineHeight=&quot;125%&quot; anchor=&quot;middle&quot; family=&quot;微软雅黑&quot; size=&quot;13px&quot; weight=&quot;400&quot; font-style=&quot;&quot; opacity=&quot;1&quot; y=&quot;16.375&quot; transform=&quot;rotate(0)&quot;&gt;&lt;tspan id=&quot;SvgjsTspan1241&quot; dy=&quot;16&quot; x=&quot;59&quot;&gt;&lt;tspan id=&quot;SvgjsTspan1242&quot; style=&quot;text-decoration:;&quot;&gt;GPU&lt;/tspan&gt;&lt;/tspan&gt;&lt;/text&gt;&lt;/g&gt;&lt;/g&gt;&lt;g id=&quot;SvgjsG1243&quot; transform=&quot;translate(716.3105622056522,102.19991169544748)&quot;&gt;&lt;path id=&quot;SvgjsPath1244&quot; d=&quot;M 0 4Q 0 0 4 0L 136 0Q 140 0 140 4L 140 51.51020408163282Q 140 55.51020408163282 136 55.51020408163282L 4 55.51020408163282Q 0 55.51020408163282 0 51.51020408163282Z&quot; stroke=&quot;rgba(25,118,210,1)&quot; stroke-width=&quot;1&quot; fill-opacity=&quot;1&quot; fill=&quot;#2196f3&quot;&gt;&lt;/path&gt;&lt;g id=&quot;SvgjsG1245&quot;&gt;&lt;text id=&quot;SvgjsText1246&quot; font-family=&quot;微软雅黑&quot; text-anchor=&quot;middle&quot; font-size=&quot;13px&quot; width=&quot;120px&quot; fill=&quot;#ffffff&quot; font-weight=&quot;400&quot; align=&quot;middle&quot; lineHeight=&quot;125%&quot; anchor=&quot;middle&quot; family=&quot;微软雅黑&quot; size=&quot;13px&quot; weight=&quot;400&quot; font-style=&quot;&quot; opacity=&quot;1&quot; y=&quot;17.13010204081641&quot; transform=&quot;rotate(0)&quot;&gt;&lt;tspan id=&quot;SvgjsTspan1247&quot; dy=&quot;16&quot; x=&quot;70&quot;&gt;&lt;tspan id=&quot;SvgjsTspan1248&quot; style=&quot;text-decoration:;&quot;&gt;main thread&lt;/tspan&gt;&lt;/tspan&gt;&lt;/text&gt;&lt;/g&gt;&lt;/g&gt;&lt;g id=&quot;SvgjsG1249&quot; transform=&quot;translate(716.1881132260603,238.29174843014175)&quot;&gt;&lt;path id=&quot;SvgjsPath1250&quot; d=&quot;M 0 4Q 0 0 4 0L 136 0Q 140 0 140 4L 140 50.00000000000006Q 140 54.00000000000006 136 54.00000000000006L 4 54.00000000000006Q 0 54.00000000000006 0 50.00000000000006Z&quot; stroke=&quot;rgba(244,67,54,1)&quot; stroke-width=&quot;1&quot; fill-opacity=&quot;1&quot; fill=&quot;#e57373&quot;&gt;&lt;/path&gt;&lt;g id=&quot;SvgjsG1251&quot;&gt;&lt;text id=&quot;SvgjsText1252&quot; font-family=&quot;微软雅黑&quot; text-anchor=&quot;middle&quot; font-size=&quot;13px&quot; width=&quot;120px&quot; fill=&quot;#ffffff&quot; font-weight=&quot;400&quot; align=&quot;middle&quot; lineHeight=&quot;125%&quot; anchor=&quot;middle&quot; family=&quot;微软雅黑&quot; size=&quot;13px&quot; weight=&quot;400&quot; font-style=&quot;&quot; opacity=&quot;1&quot; y=&quot;16.37500000000003&quot; transform=&quot;rotate(0)&quot;&gt;&lt;tspan id=&quot;SvgjsTspan1253&quot; dy=&quot;16&quot; x=&quot;70&quot;&gt;&lt;tspan id=&quot;SvgjsTspan1254&quot; style=&quot;text-decoration:;&quot;&gt;compositor thread&lt;/tspan&gt;&lt;/tspan&gt;&lt;/text&gt;&lt;/g&gt;&lt;/g&gt;&lt;g id=&quot;SvgjsG1255&quot; transform=&quot;translate(883.6575009811627,164.52644230769258)&quot;&gt;&lt;path id=&quot;SvgjsPath1256&quot; d=&quot;M 0 4Q 0 0 4 0L 136 0Q 140 0 140 4L 140 50Q 140 54 136 54L 4 54Q 0 54 0 50Z&quot; stroke=&quot;rgba(186,104,200,1)&quot; stroke-width=&quot;1&quot; fill-opacity=&quot;1&quot; fill=&quot;#e1bee7&quot;&gt;&lt;/path&gt;&lt;g id=&quot;SvgjsG1257&quot;&gt;&lt;text id=&quot;SvgjsText1258&quot; font-family=&quot;微软雅黑&quot; text-anchor=&quot;middle&quot; font-size=&quot;13px&quot; width=&quot;120px&quot; fill=&quot;#323232&quot; font-weight=&quot;400&quot; align=&quot;middle&quot; lineHeight=&quot;125%&quot; anchor=&quot;middle&quot; family=&quot;微软雅黑&quot; size=&quot;13px&quot; weight=&quot;400&quot; font-style=&quot;&quot; opacity=&quot;1&quot; y=&quot;16.375&quot; transform=&quot;rotate(0)&quot;&gt;&lt;tspan id=&quot;SvgjsTspan1259&quot; dy=&quot;16&quot; x=&quot;70&quot;&gt;&lt;tspan id=&quot;SvgjsTspan1260&quot; style=&quot;text-decoration:;fill: rgb(50, 50, 50);&quot;&gt;raster thread&lt;/tspan&gt;&lt;/tspan&gt;&lt;/text&gt;&lt;/g&gt;&lt;/g&gt;&lt;g id=&quot;SvgjsG1261&quot;&gt;&lt;path id=&quot;SvgjsPath1262&quot; d=&quot;M786.3105622056522 157.5366463893254L786.3105622056522 197.6641974097336L786.1881132260603 197.6641974097336L786.1881132260603 236.49174843014174&quot; stroke=&quot;#000000&quot; stroke-width=&quot;1&quot; fill=&quot;none&quot; marker-end=&quot;url(#SvgjsMarker1263)&quot;&gt;&lt;/path&gt;&lt;rect id=&quot;SvgjsRect1265&quot; width=&quot;65&quot; height=&quot;16&quot; x=&quot;753.8105622056522&quot; y=&quot;189.07542189952952&quot; fill=&quot;#ffffff&quot;&gt;&lt;/rect&gt;&lt;text id=&quot;SvgjsText1266&quot; font-family=&quot;微软雅黑&quot; text-anchor=&quot;middle&quot; font-size=&quot;13px&quot; width=&quot;65px&quot; fill=&quot;#323232&quot; font-weight=&quot;400&quot; align=&quot;top&quot; lineHeight=&quot;16px&quot; anchor=&quot;middle&quot; family=&quot;微软雅黑&quot; size=&quot;13px&quot; weight=&quot;400&quot; font-style=&quot;&quot; opacity=&quot;1&quot; y=&quot;186.45042189952952&quot; transform=&quot;rotate(0)&quot;&gt;&lt;tspan id=&quot;SvgjsTspan1267&quot; dy=&quot;16&quot; x=&quot;786.3105622056522&quot;&gt;&lt;tspan id=&quot;SvgjsTspan1268&quot; style=&quot;text-decoration:;&quot;&gt;Layer Tree&lt;/tspan&gt;&lt;/tspan&gt;&lt;/text&gt;&lt;/g&gt;&lt;g id=&quot;SvgjsG1269&quot;&gt;&lt;path id=&quot;SvgjsPath1270&quot; d=&quot;M856.6881132260603 265.2917484301418L953.6575009811627 265.2917484301418L953.6575009811627 220.32644230769253&quot; stroke=&quot;#000000&quot; stroke-width=&quot;1&quot; fill=&quot;none&quot; marker-end=&quot;url(#SvgjsMarker1271)&quot;&gt;&lt;/path&gt;&lt;rect id=&quot;SvgjsRect1273&quot; width=&quot;25&quot; height=&quot;16&quot; x=&quot;915.1554601648361&quot; y=&quot;257.2917484301418&quot; fill=&quot;#ffffff&quot;&gt;&lt;/rect&gt;&lt;text id=&quot;SvgjsText1274&quot; font-family=&quot;微软雅黑&quot; text-anchor=&quot;middle&quot; font-size=&quot;13px&quot; width=&quot;25px&quot; fill=&quot;#323232&quot; font-weight=&quot;400&quot; align=&quot;top&quot; lineHeight=&quot;16px&quot; anchor=&quot;middle&quot; family=&quot;微软雅黑&quot; size=&quot;13px&quot; weight=&quot;400&quot; font-style=&quot;&quot; opacity=&quot;1&quot; y=&quot;254.6667484301418&quot; transform=&quot;rotate(0)&quot;&gt;&lt;tspan id=&quot;SvgjsTspan1275&quot; dy=&quot;16&quot; x=&quot;927.6554601648361&quot;&gt;&lt;tspan id=&quot;SvgjsTspan1276&quot; style=&quot;text-decoration:;&quot;&gt;tiles&lt;/tspan&gt;&lt;/tspan&gt;&lt;/text&gt;&lt;/g&gt;&lt;g id=&quot;SvgjsG1277&quot;&gt;&lt;path id=&quot;SvgjsPath1278&quot; d=&quot;M1023.8829057932392 191.08013224653246C 1066.0248479199377 86.3019525117739 1142.4330111852444 137.89319197655894 1142.1579328220598 183.6863609113108&quot; stroke=&quot;#000000&quot; stroke-width=&quot;1&quot; fill=&quot;none&quot; marker-end=&quot;url(#SvgjsMarker1279)&quot;&gt;&lt;/path&gt;&lt;rect id=&quot;SvgjsRect1281&quot; width=&quot;90&quot; height=&quot;16&quot; x=&quot;1030.9177152668767&quot; y=&quot;110.77471034912867&quot; fill=&quot;#ffffff&quot;&gt;&lt;/rect&gt;&lt;text id=&quot;SvgjsText1282&quot; font-family=&quot;微软雅黑&quot; text-anchor=&quot;middle&quot; font-size=&quot;13px&quot; width=&quot;90px&quot; fill=&quot;#323232&quot; font-weight=&quot;400&quot; align=&quot;top&quot; lineHeight=&quot;16px&quot; anchor=&quot;middle&quot; family=&quot;微软雅黑&quot; size=&quot;13px&quot; weight=&quot;400&quot; font-style=&quot;&quot; opacity=&quot;1&quot; y=&quot;108.14971034912867&quot; transform=&quot;rotate(0)&quot;&gt;&lt;tspan id=&quot;SvgjsTspan1283&quot; dy=&quot;16&quot; x=&quot;1075.9177152668767&quot;&gt;&lt;tspan id=&quot;SvgjsTspan1284&quot; style=&quot;text-decoration:;&quot;&gt;光栅化后的tiles&lt;/tspan&gt;&lt;/tspan&gt;&lt;/text&gt;&lt;/g&gt;&lt;g id=&quot;SvgjsG1285&quot;&gt;&lt;path id=&quot;SvgjsPath1286&quot; d=&quot;M715.6881189653217 265.2893527614634C 606.4926909844901 265.2917484301418 485.4126030219781 251.60807496075364 451.8935638905397 333.98946585735473&quot; stroke=&quot;#000000&quot; stroke-width=&quot;1&quot; fill=&quot;none&quot; marker-end=&quot;url(#SvgjsMarker1287)&quot;&gt;&lt;/path&gt;&lt;rect id=&quot;SvgjsRect1289&quot; width=&quot;112&quot; height=&quot;16&quot; x=&quot;499.4121956094082&quot; y=&quot;260.74728609893805&quot; fill=&quot;#ffffff&quot;&gt;&lt;/rect&gt;&lt;text id=&quot;SvgjsText1290&quot; font-family=&quot;微软雅黑&quot; text-anchor=&quot;middle&quot; font-size=&quot;13px&quot; width=&quot;112px&quot; fill=&quot;#323232&quot; font-weight=&quot;400&quot; align=&quot;top&quot; lineHeight=&quot;16px&quot; anchor=&quot;middle&quot; family=&quot;微软雅黑&quot; size=&quot;13px&quot; weight=&quot;400&quot; font-style=&quot;&quot; opacity=&quot;1&quot; y=&quot;258.12228609893805&quot; transform=&quot;rotate(0)&quot;&gt;&lt;tspan id=&quot;SvgjsTspan1291&quot; dy=&quot;16&quot; x=&quot;555.4121956094082&quot;&gt;&lt;tspan id=&quot;SvgjsTspan1292&quot; style=&quot;text-decoration:;&quot;&gt;Compositor Frame&lt;/tspan&gt;&lt;/tspan&gt;&lt;/text&gt;&lt;/g&gt;&lt;g id=&quot;SvgjsG1293&quot; transform=&quot;translate(384.3233173076923,334.9295035321824)&quot;&gt;&lt;path id=&quot;SvgjsPath1294&quot; d=&quot;M 13.359183673469392 47.94285714285714C -11.132653061224495 34.244897959183675 4.453061224489797 23.97142857142857 10.019387755102043 20.546938775510203C 7.792857142857146 3.4244897959183676 35.62448979591838 0 46.757142857142874 6.848979591836735C 55.66326530612247 -3.4244897959183676 83.4948979591837 0 83.4948979591837 10.273469387755101C 105.76020408163268 6.848979591836735 114.6663265306123 20.546938775510203 105.76020408163268 37.66938775510204C 113.55306122448984 51.36734693877551 105.76020408163268 68.48979591836735 80.15510204081635 61.64081632653062C 74.58877551020412 70.54448979591837 52.32346938775512 70.54448979591837 46.757142857142874 61.64081632653062C 35.62448979591838 68.48979591836735 13.359183673469392 65.06530612244897 13.359183673469392 47.94285714285714Z&quot; stroke=&quot;rgba(129,199,132,1)&quot; stroke-width=&quot;1&quot; fill-opacity=&quot;1&quot; fill=&quot;#c8e6c9&quot;&gt;&lt;/path&gt;&lt;g id=&quot;SvgjsG1295&quot;&gt;&lt;text id=&quot;SvgjsText1296&quot; font-family=&quot;微软雅黑&quot; text-anchor=&quot;middle&quot; font-size=&quot;13px&quot; width=&quot;92px&quot; fill=&quot;#323232&quot; font-weight=&quot;400&quot; align=&quot;middle&quot; lineHeight=&quot;125%&quot; anchor=&quot;middle&quot; family=&quot;微软雅黑&quot; size=&quot;13px&quot; weight=&quot;400&quot; font-style=&quot;&quot; opacity=&quot;1&quot; y=&quot;15.119897959183675&quot; transform=&quot;rotate(0)&quot;&gt;&lt;tspan id=&quot;SvgjsTspan1297&quot; dy=&quot;16&quot; x=&quot;56&quot;&gt;&lt;tspan id=&quot;SvgjsTspan1298&quot; style=&quot;text-decoration:;&quot;&gt;Compositor &lt;/tspan&gt;&lt;/tspan&gt;&lt;tspan id=&quot;SvgjsTspan1299&quot; dy=&quot;16&quot; x=&quot;56&quot;&gt;&lt;tspan id=&quot;SvgjsTspan1300&quot; style=&quot;text-decoration:;&quot;&gt;Frame&lt;/tspan&gt;&lt;/tspan&gt;&lt;/text&gt;&lt;/g&gt;&lt;/g&gt;&lt;g id=&quot;SvgjsG1301&quot;&gt;&lt;path id=&quot;SvgjsPath1302&quot; d=&quot;M491.01066138581245 370.81901503489644C 515.2088565405338 370.7560341444272 525.2617576666883 387.42950353218225 548.1703071978889 387.20277232649306&quot; stroke=&quot;#000000&quot; stroke-width=&quot;1&quot; fill=&quot;none&quot; marker-end=&quot;url(#SvgjsMarker1303)&quot;&gt;&lt;/path&gt;&lt;/g&gt;&lt;g id=&quot;SvgjsG1305&quot;&gt;&lt;path id=&quot;SvgjsPath1306&quot; d=&quot;M341.4483173076925 167.7101157770802C 342.4087213686018 178.68758442505825 342.28760302197827 184.2264292679441 342.2798533828692 192.14583974940754&quot; stroke=&quot;#000000&quot; stroke-width=&quot;2&quot; fill=&quot;none&quot; marker-end=&quot;url(#SvgjsMarker1307)&quot;&gt;&lt;/path&gt;&lt;/g&gt;&lt;g id=&quot;SvgjsG1309&quot; transform=&quot;translate(545.5886234301416,116.95501373626382)&quot;&gt;&lt;path id=&quot;SvgjsPath1310&quot; d=&quot;M 0 13C 0 -4.333333333333333 26 -4.333333333333333 26 13C 26 30.333333333333332 0 30.333333333333332 0 13Z&quot; stroke=&quot;none&quot; fill-opacity=&quot;1&quot; fill=&quot;#f57c00&quot;&gt;&lt;/path&gt;&lt;g id=&quot;SvgjsG1311&quot;&gt;&lt;text id=&quot;SvgjsText1312&quot; font-family=&quot;微软雅黑&quot; text-anchor=&quot;middle&quot; font-size=&quot;14px&quot; width=&quot;6px&quot; fill=&quot;#ffffff&quot; font-weight=&quot;400&quot; align=&quot;middle&quot; lineHeight=&quot;125%&quot; anchor=&quot;middle&quot; family=&quot;微软雅黑&quot; size=&quot;14px&quot; weight=&quot;400&quot; font-style=&quot;&quot; opacity=&quot;1&quot; y=&quot;1.25&quot; transform=&quot;rotate(0)&quot;&gt;&lt;tspan id=&quot;SvgjsTspan1313&quot; dy=&quot;17&quot; x=&quot;13&quot;&gt;&lt;tspan id=&quot;SvgjsTspan1314&quot; style=&quot;text-decoration:;&quot;&gt;6&lt;/tspan&gt;&lt;/tspan&gt;&lt;/text&gt;&lt;/g&gt;&lt;/g&gt;&lt;g id=&quot;SvgjsG1315&quot; transform=&quot;translate(722.3105622056516,185.46521781789653)&quot;&gt;&lt;path id=&quot;SvgjsPath1316&quot; d=&quot;M 0 13C 0 -4.333333333333333 26 -4.333333333333333 26 13C 26 30.333333333333332 0 30.333333333333332 0 13Z&quot; stroke=&quot;none&quot; fill-opacity=&quot;1&quot; fill=&quot;#f57c00&quot;&gt;&lt;/path&gt;&lt;g id=&quot;SvgjsG1317&quot;&gt;&lt;text id=&quot;SvgjsText1318&quot; font-family=&quot;微软雅黑&quot; text-anchor=&quot;middle&quot; font-size=&quot;14px&quot; width=&quot;6px&quot; fill=&quot;#ffffff&quot; font-weight=&quot;400&quot; align=&quot;middle&quot; lineHeight=&quot;125%&quot; anchor=&quot;middle&quot; family=&quot;微软雅黑&quot; size=&quot;14px&quot; weight=&quot;400&quot; font-style=&quot;&quot; opacity=&quot;1&quot; y=&quot;1.25&quot; transform=&quot;rotate(0)&quot;&gt;&lt;tspan id=&quot;SvgjsTspan1319&quot; dy=&quot;17&quot; x=&quot;13&quot;&gt;&lt;tspan id=&quot;SvgjsTspan1320&quot; style=&quot;text-decoration:;&quot;&gt;7&lt;/tspan&gt;&lt;/tspan&gt;&lt;/text&gt;&lt;/g&gt;&lt;/g&gt;&lt;g id=&quot;SvgjsG1321&quot; transform=&quot;translate(631.5069907770803,270.94991169544807)&quot;&gt;&lt;path id=&quot;SvgjsPath1322&quot; d=&quot;M 0 13C 0 -4.333333333333333 26 -4.333333333333333 26 13C 26 30.333333333333332 0 30.333333333333332 0 13Z&quot; stroke=&quot;none&quot; fill-opacity=&quot;1&quot; fill=&quot;#f57c00&quot;&gt;&lt;/path&gt;&lt;g id=&quot;SvgjsG1323&quot;&gt;&lt;text id=&quot;SvgjsText1324&quot; font-family=&quot;微软雅黑&quot; text-anchor=&quot;middle&quot; font-size=&quot;14px&quot; width=&quot;6px&quot; fill=&quot;#ffffff&quot; font-weight=&quot;400&quot; align=&quot;middle&quot; lineHeight=&quot;125%&quot; anchor=&quot;middle&quot; family=&quot;微软雅黑&quot; size=&quot;14px&quot; weight=&quot;400&quot; font-style=&quot;&quot; opacity=&quot;1&quot; y=&quot;1.25&quot; transform=&quot;rotate(0)&quot;&gt;&lt;tspan id=&quot;SvgjsTspan1325&quot; dy=&quot;17&quot; x=&quot;13&quot;&gt;&lt;tspan id=&quot;SvgjsTspan1326&quot; style=&quot;text-decoration:;&quot;&gt;8&lt;/tspan&gt;&lt;/tspan&gt;&lt;/text&gt;&lt;/g&gt;&lt;/g&gt;&lt;g id=&quot;SvgjsG1327&quot; transform=&quot;translate(504.56821526687634,340.03154434850893)&quot;&gt;&lt;path id=&quot;SvgjsPath1328&quot; d=&quot;M 0 13C 0 -4.333333333333333 26 -4.333333333333333 26 13C 26 30.333333333333332 0 30.333333333333332 0 13Z&quot; stroke=&quot;none&quot; fill-opacity=&quot;1&quot; fill=&quot;#f57c00&quot;&gt;&lt;/path&gt;&lt;g id=&quot;SvgjsG1329&quot;&gt;&lt;text id=&quot;SvgjsText1330&quot; font-family=&quot;微软雅黑&quot; text-anchor=&quot;middle&quot; font-size=&quot;14px&quot; width=&quot;6px&quot; fill=&quot;#ffffff&quot; font-weight=&quot;400&quot; align=&quot;middle&quot; lineHeight=&quot;125%&quot; anchor=&quot;middle&quot; family=&quot;微软雅黑&quot; size=&quot;14px&quot; weight=&quot;400&quot; font-style=&quot;&quot; opacity=&quot;1&quot; y=&quot;1.25&quot; transform=&quot;rotate(0)&quot;&gt;&lt;tspan id=&quot;SvgjsTspan1331&quot; dy=&quot;17&quot; x=&quot;13&quot;&gt;&lt;tspan id=&quot;SvgjsTspan1332&quot; style=&quot;text-decoration:;&quot;&gt;9&lt;/tspan&gt;&lt;/tspan&gt;&lt;/text&gt;&lt;/g&gt;&lt;/g&gt;&lt;g id=&quot;SvgjsG1333&quot;&gt;&lt;path id=&quot;SvgjsPath1334&quot; d=&quot;M786.8693287802064 100.48883603517963C 786.3105622056522 71.89070577796083 857.4920679266944 34.9838237814875 852.2289295525911 64.83256475667186&quot; stroke=&quot;#323232&quot; stroke-width=&quot;1&quot; fill=&quot;none&quot; marker-start=&quot;url(#SvgjsMarker1335)&quot;&gt;&lt;/path&gt;&lt;/g&gt;&lt;g id=&quot;SvgjsG1337&quot; transform=&quot;translate(839.2289295525911,64.83256475667186)&quot;&gt;&lt;path id=&quot;SvgjsPath1338&quot; d=&quot;M 0 13C 0 -4.333333333333333 26 -4.333333333333333 26 13C 26 30.333333333333332 0 30.333333333333332 0 13Z&quot; stroke=&quot;none&quot; fill-opacity=&quot;1&quot; fill=&quot;#f57c00&quot;&gt;&lt;/path&gt;&lt;g id=&quot;SvgjsG1339&quot;&gt;&lt;text id=&quot;SvgjsText1340&quot; font-family=&quot;微软雅黑&quot; text-anchor=&quot;middle&quot; font-size=&quot;14px&quot; width=&quot;6px&quot; fill=&quot;#ffffff&quot; font-weight=&quot;400&quot; align=&quot;middle&quot; lineHeight=&quot;125%&quot; anchor=&quot;middle&quot; family=&quot;微软雅黑&quot; size=&quot;14px&quot; weight=&quot;400&quot; font-style=&quot;&quot; opacity=&quot;1&quot; y=&quot;1.25&quot; transform=&quot;rotate(0)&quot;&gt;&lt;tspan id=&quot;SvgjsTspan1341&quot; dy=&quot;17&quot; x=&quot;13&quot;&gt;&lt;tspan id=&quot;SvgjsTspan1342&quot; style=&quot;text-decoration:;&quot;&gt;6&lt;/tspan&gt;&lt;/tspan&gt;&lt;/text&gt;&lt;/g&gt;&lt;/g&gt;&lt;/svg&gt;" style="text;whiteSpace=wrap;html=1;" vertex="1" parent="1">
          <mxGeometry width="560" height="670" as="geometry" />
        </mxCell>
      </root>
    </mxGraphModel>
  </diagram>
</mxfile>
